<?xml version="1.0" standalone="no"?>
<!DOCTYPE svg PUBLIC "-//W3C//DTD SVG 20010904//EN"
 "http://www.w3.org/TR/2001/REC-SVG-20010904/DTD/svg10.dtd">
<svg version="1.0" xmlns="http://www.w3.org/2000/svg"
 width="299.000000pt" height="168.000000pt" viewBox="0 0 299.000000 168.000000"
 preserveAspectRatio="xMidYMid meet">

<g transform="translate(0.000000,168.000000) scale(0.100000,-0.100000)"
fill="#000000" stroke="none">
<path d="M1011 1395 c-191 -42 -290 -99 -312 -179 -23 -83 -100 -122 -229
-114 -70 5 -73 4 -38 -8 68 -23 202 -46 241 -41 49 7 58 20 50 73 -13 97 91
184 307 255 91 30 84 36 -19 14z"/>
<path d="M364 1292 c-73 -26 -101 -46 -114 -87 -14 -43 -52 -65 -112 -66 -36
0 -39 -2 -21 -9 13 -5 45 -12 73 -16 55 -7 81 5 73 35 -12 47 56 112 155 147
22 8 29 13 17 13 -11 0 -43 -8 -71 -17z"/>
<path d="M985 1176 c-85 -29 -127 -73 -146 -148 -15 -64 -65 -121 -127 -145
-51 -19 -205 -25 -292 -10 -62 10 -25 -5 105 -44 65 -19 133 -32 195 -36 124
-7 139 3 156 105 7 39 22 88 34 107 41 66 136 130 261 175 l54 19 -85 0 c-64
0 -103 -6 -155 -23z"/>
<path d="M1997 1176 c-81 -30 -117 -90 -117 -196 0 -134 40 -172 223 -209 113
-23 143 -39 163 -86 54 -131 -57 -248 -204 -215 -90 20 -143 81 -168 190 -12
53 -12 51 -12 -75 -1 -87 2 -123 8 -107 11 27 32 28 90 1 56 -26 155 -36 204
-19 73 24 116 76 136 166 31 136 -37 227 -189 254 -170 30 -211 58 -211 143 0
94 56 149 151 149 94 -1 178 -75 194 -173 12 -71 25 -40 25 60 0 93 -11 137
-23 91 -7 -27 -27 -25 -88 7 -61 31 -130 39 -182 19z"/>
<path d="M1583 1163 l47 -4 0 -340 0 -339 -45 0 c-25 0 -45 -3 -45 -7 0 -5 63
-8 140 -8 77 0 140 3 140 8 0 4 -20 7 -45 7 l-45 0 0 339 0 340 48 4 c26 2
-18 3 -98 3 -80 0 -124 -1 -97 -3z"/>
<path d="M2388 1163 l52 -4 0 -339 0 -339 -52 -4 c-29 -2 42 -4 157 -5 235 -2
265 5 318 67 34 41 41 67 35 138 -4 50 -9 60 -45 94 -23 21 -59 43 -84 49 -73
20 -76 23 -32 31 96 18 143 68 143 152 0 65 -21 101 -78 134 l-47 28 -210 1
c-115 1 -186 -1 -157 -3z m314 -30 c18 -10 43 -35 56 -54 20 -29 23 -44 20
-96 -6 -97 -53 -133 -173 -133 l-65 0 0 156 0 157 65 -5 c37 -3 78 -14 97 -25z
m14 -329 c51 -37 68 -70 72 -137 3 -51 -1 -70 -20 -106 -32 -60 -74 -81 -160
-81 l-68 0 0 176 0 176 74 -4 c56 -2 82 -9 102 -24z"/>
<path d="M1252 1013 c-20 -4 -21 -7 -10 -21 11 -13 11 -15 -4 -10 -9 4 -19 1
-22 -7 -2 -7 2 -16 10 -19 14 -5 14 -8 -1 -22 -9 -9 -18 -14 -21 -11 -3 2 -21
-3 -41 -13 -28 -13 -45 -15 -81 -8 -34 6 -51 4 -67 -6 -34 -23 -145 -152 -137
-161 4 -5 2 -5 -4 -2 -7 4 -32 -2 -57 -13 -24 -11 -80 -25 -123 -31 -44 -6
-87 -15 -96 -20 -23 -12 -105 0 -119 17 -15 19 -41 18 -84 -3 -44 -21 -45 -33
-2 -34 l32 -1 -27 -12 c-22 -9 -25 -15 -16 -24 17 -17 31 -15 46 8 7 11 19 20
26 20 8 0 16 8 18 18 2 11 6 13 11 5 4 -6 0 -18 -8 -27 -18 -18 -11 -23 33
-22 33 1 33 1 11 -17 -11 -9 -17 -17 -12 -17 5 0 15 6 21 12 10 10 15 10 21 0
5 -8 11 -13 15 -13 3 1 6 -2 7 -6 0 -5 10 -12 22 -17 21 -8 21 -9 -7 -18 -16
-6 -37 -19 -47 -29 -11 -11 -27 -19 -36 -19 -32 0 29 -50 112 -91 89 -44 183
-62 210 -39 10 8 19 9 28 3 16 -13 77 -16 77 -4 0 6 -9 8 -20 6 -22 -4 -36 10
-20 20 17 10 11 23 -14 29 -25 6 -44 36 -23 36 9 0 9 2 -1 9 -10 6 -7 17 14
49 28 43 42 50 61 31 8 -8 15 -4 27 12 8 13 19 19 23 15 4 -4 0 -14 -10 -21
-10 -7 -18 -16 -18 -19 2 -16 0 -18 -13 -7 -10 8 -16 9 -21 1 -3 -5 -1 -10 4
-10 6 0 11 -4 11 -10 0 -5 -9 -10 -19 -10 -11 0 -23 -5 -26 -10 -4 -6 -1 -9 5
-8 17 4 22 -32 6 -38 -9 -3 -1 -17 22 -40 l35 -35 47 16 c83 28 228 134 214
157 -3 5 -1 7 4 6 6 -2 10 1 10 6 0 5 7 13 16 18 21 12 60 89 81 162 18 60 21
194 7 256 -8 37 -26 44 -80 33z m13 -93 c-3 -5 -11 -10 -16 -10 -6 0 -7 5 -4
10 3 6 11 10 16 10 6 0 7 -4 4 -10z m-303 -97 c-6 -9 -6 -29 -1 -46 5 -16 6
-27 2 -23 -3 3 -13 0 -22 -7 -14 -11 -14 -10 -2 5 7 10 11 28 8 40 -4 12 -1
28 5 35 15 18 21 16 10 -4z m147 -66 c-2 -1 -13 -9 -24 -17 -19 -14 -19 -14
-6 3 7 9 18 17 24 17 6 0 8 -1 6 -3z m-79 -32 c-7 -9 -16 -12 -19 -8 -4 4 -10
11 -15 16 -5 4 3 7 19 7 24 0 26 -2 15 -15z m-100 -10 c-7 -8 -9 -15 -4 -15 5
0 1 -5 -9 -11 -10 -6 -20 -9 -23 -7 -5 6 29 48 40 48 5 0 3 -7 -4 -15z m293
-35 c-7 -8 -22 24 -16 34 4 5 10 1 13 -10 4 -10 6 -21 3 -24z m-353 -5 c0 -11
5 -12 25 -5 22 9 25 7 25 -15 0 -14 4 -25 8 -25 18 0 9 -38 -10 -43 -16 -5
-18 -3 -9 6 21 21 12 36 -19 32 -27 -4 -29 -3 -15 11 8 8 19 12 25 9 5 -3 10
-1 10 5 0 6 -14 8 -40 4 -26 -4 -40 -3 -40 4 0 6 7 9 15 6 8 -4 15 -2 15 4 0
6 -6 13 -12 15 -8 3 -6 6 5 6 9 1 17 -6 17 -14z m190 -19 c0 -5 -7 -3 -15 4
-8 7 -12 17 -9 22 7 10 24 -9 24 -26z m-83 2 c-3 -8 -6 -5 -6 6 -1 11 2 17 5
13 3 -3 4 -12 1 -19z m-210 -4 c-3 -3 -12 -4 -19 -1 -8 3 -5 6 6 6 11 1 17 -2
13 -5z m-232 -14 c3 -6 -1 -7 -9 -4 -18 7 -21 14 -7 14 6 0 13 -4 16 -10z
m575 -4 c0 -11 -19 -15 -25 -6 -3 5 1 10 9 10 9 0 16 -2 16 -4z m-457 -13 c-7
-2 -19 -2 -25 0 -7 3 -2 5 12 5 14 0 19 -2 13 -5z m317 -3 c0 -5 -5 -10 -11
-10 -5 0 -7 5 -4 10 3 6 8 10 11 10 2 0 4 -4 4 -10z m58 -25 c0 -13 -4 -22 -9
-19 -5 3 -9 14 -9 25 0 10 4 19 9 19 5 0 9 -11 9 -25z m-413 5 c-3 -5 -11 -10
-16 -10 -6 0 -7 5 -4 10 3 6 11 10 16 10 6 0 7 -4 4 -10z m322 -36 c-3 -3 -12
-4 -19 -1 -8 3 -5 6 6 6 11 1 17 -2 13 -5z m-203 -28 c-7 -19 -42 -14 -37 5 3
11 12 15 23 12 10 -3 17 -10 14 -17z m326 -30 c0 -2 -7 -7 -16 -10 -8 -3 -12
-2 -9 4 6 10 25 14 25 6z m-310 -56 c0 -5 -5 -10 -11 -10 -5 0 -7 5 -4 10 3 6
8 10 11 10 2 0 4 -4 4 -10z m240 -21 c48 -10 61 -21 41 -33 -5 -4 -11 -2 -13
3 -1 4 -14 12 -27 16 -15 4 -21 3 -17 -3 3 -5 0 -15 -8 -21 -11 -9 -12 -6 -9
13 4 17 0 25 -14 29 -37 9 -3 7 47 -4z"/>
<path d="M376 694 c-11 -8 -16 -14 -10 -14 13 0 39 18 34 24 -3 2 -14 -2 -24
-10z"/>
<path d="M430 602 c0 -5 14 -9 30 -10 17 0 30 3 30 7 0 4 -13 8 -30 9 -16 1
-30 -2 -30 -6z"/>
</g>
</svg>
