<?xml version="1.0" standalone="no"?>
<!DOCTYPE svg PUBLIC "-//W3C//DTD SVG 20010904//EN"
 "http://www.w3.org/TR/2001/REC-SVG-20010904/DTD/svg10.dtd">
<svg version="1.0" xmlns="http://www.w3.org/2000/svg"
 width="405.000000pt" height="400.000000pt" viewBox="0 0 405.000000 400.000000"
 preserveAspectRatio="xMidYMid meet">

<g transform="translate(0.000000,400.000000) scale(0.100000,-0.100000)"
fill="#000000" stroke="none">
<path d="M1810 3959 c-417 -51 -789 -216 -1090 -481 -338 -298 -558 -692 -642
-1148 -31 -165 -31 -495 0 -660 68 -370 226 -700 464 -970 360 -408 861 -645
1408 -667 900 -35 1714 557 1965 1432 132 458 85 969 -129 1402 -282 571 -806
963 -1436 1074 -132 24 -420 33 -540 18z m415 -29 c221 -26 446 -90 640 -184
667 -325 1095 -1007 1095 -1746 0 -515 -203 -1002 -570 -1370 -524 -524 -1282
-703 -1985 -469 -786 262 -1325 1009 -1325 1839 0 467 175 929 486 1283 308
352 766 591 1237 646 104 12 318 12 422 1z"/>
<path d="M1816 3793 c-23 -3 -35 -8 -28 -12 8 -5 15 -53 19 -136 6 -118 5
-129 -13 -143 -18 -13 -17 -14 15 -8 18 3 43 6 55 7 11 0 15 3 9 6 -8 3 -13
25 -13 59 0 72 15 71 88 -6 52 -54 62 -60 97 -60 35 1 37 2 20 12 -26 14 -104
88 -116 111 -8 13 -5 24 10 44 27 33 27 84 1 108 -20 18 -78 26 -144 18z m99
-38 c44 -43 21 -119 -33 -113 -26 3 -27 6 -30 71 -3 62 -1 67 18 67 11 0 32
-11 45 -25z"/>
<path d="M1525 3745 c-27 -7 -63 -16 -80 -20 -28 -7 -29 -8 -9 -15 18 -7 26
-29 48 -122 29 -126 31 -148 14 -148 -6 0 -9 -3 -6 -6 3 -3 32 1 64 9 33 8 71
18 87 21 21 5 27 12 27 34 -1 22 -2 24 -10 10 -11 -18 -74 -43 -89 -34 -9 6
-31 83 -31 109 0 22 62 29 79 9 12 -15 13 -13 6 13 -3 16 -8 31 -9 32 -1 1
-20 -4 -41 -12 -46 -15 -50 -11 -61 49 -4 27 -2 41 7 47 21 13 67 11 72 -3 3
-7 6 -1 6 15 1 30 -2 31 -74 12z"/>
<path d="M2380 3753 c-61 -23 -67 -84 -15 -157 40 -57 46 -100 15 -116 -29
-15 -58 -4 -79 32 l-19 29 -6 -27 c-8 -31 0 -39 56 -54 43 -12 79 -1 102 32
25 36 19 71 -24 136 -44 65 -48 83 -24 102 21 18 65 2 81 -30 7 -14 13 -20 13
-13 0 6 3 19 6 27 10 26 -66 54 -106 39z"/>
<path d="M2603 3698 c-21 -28 -24 -38 -9 -32 16 6 83 -12 91 -26 7 -11 -90
-213 -110 -230 -15 -12 -12 -16 27 -36 48 -26 72 -31 43 -10 -18 13 -17 18 34
130 30 64 59 116 65 116 23 0 77 -41 71 -53 -4 -6 1 -3 9 7 9 11 16 22 16 25
0 3 -44 26 -98 50 -53 24 -104 50 -113 58 -13 11 -18 11 -26 1z"/>
<path d="M1209 3630 c-42 -20 -94 -44 -116 -53 -35 -14 -40 -19 -35 -42 4 -25
5 -26 19 -5 14 20 71 55 79 48 15 -16 104 -225 101 -238 -4 -15 1 -15 45 4 42
18 47 22 28 26 -17 4 -36 33 -76 118 l-53 112 31 16 c17 9 41 14 54 11 21 -4
22 -2 12 17 -6 12 -11 22 -12 22 0 1 -35 -15 -77 -36z"/>
<path d="M2957 3519 c4 -12 -14 -44 -51 -92 -67 -88 -81 -126 -62 -172 16 -37
61 -73 104 -81 43 -9 86 18 140 88 64 84 81 100 95 92 7 -4 -4 7 -23 24 -36
32 -62 43 -40 17 10 -12 5 -25 -30 -72 -72 -97 -100 -123 -135 -123 -40 0 -75
36 -75 76 0 34 108 186 138 194 15 4 11 11 -24 36 -34 26 -41 28 -37 13z"/>
<path d="M870 3401 c0 -6 18 -74 40 -153 29 -105 37 -145 29 -155 -18 -21 4
-14 36 12 20 17 25 25 14 25 -10 0 -20 15 -27 39 -15 50 -17 45 23 75 33 25
36 26 64 12 16 -9 36 -23 45 -31 14 -15 19 -14 51 11 40 30 42 34 16 27 -12
-3 -63 21 -138 66 -134 79 -153 88 -153 72z m114 -104 c18 -13 17 -15 -12 -35
l-30 -22 -16 47 c-9 26 -16 48 -16 50 0 5 51 -23 74 -40z"/>
<path d="M1835 3359 c-150 -20 -305 -69 -448 -140 -243 -122 -476 -356 -600
-604 -151 -302 -184 -665 -92 -990 34 -120 139 -331 213 -430 129 -173 329
-338 513 -424 207 -97 342 -126 589 -126 204 0 285 13 440 67 206 73 364 172
520 328 207 206 339 461 385 742 19 120 19 331 0 444 -97 566 -531 1009 -1095
1119 -103 20 -329 27 -425 14z m362 -35 c417 -61 767 -304 985 -684 44 -76 97
-213 124 -322 36 -141 44 -379 20 -529 -87 -528 -472 -946 -996 -1081 -154
-40 -374 -50 -531 -24 -368 61 -695 272 -902 582 -102 153 -160 293 -203 489
-26 123 -24 378 4 512 66 307 232 581 466 769 209 169 437 264 711 297 77 10
227 6 322 -9z"/>
<path d="M1973 3243 c23 -4 27 -9 27 -38 0 -31 -3 -34 -32 -38 l-33 -4 32 -1
c24 -2 33 -7 36 -24 2 -13 5 7 6 45 l1 67 -32 -1 c-31 -2 -31 -2 -5 -6z"/>
<path d="M1805 3226 c-44 -13 -47 -24 -19 -94 8 -20 12 -27 10 -14 -4 19 0 22
27 23 l32 2 -34 6 c-27 5 -36 12 -42 33 -7 26 -5 27 44 38 29 5 66 12 82 14
18 2 13 3 -15 4 -25 0 -63 -5 -85 -12z"/>
<path d="M2032 3153 l2 -88 3 83 4 82 57 -1 c31 0 82 -8 112 -18 51 -16 55
-19 53 -46 -4 -49 -60 -150 -110 -196 l-46 -43 -16 23 c-9 13 -24 44 -33 70
-9 25 -17 38 -18 28 0 -23 50 -127 62 -127 18 0 80 54 107 94 28 41 71 144 71
171 0 20 -120 55 -191 55 l-59 0 2 -87z"/>
<path d="M1876 3205 c-3 -9 0 -15 9 -15 9 0 12 6 9 15 -4 8 -7 15 -9 15 -2 0
-5 -7 -9 -15z"/>
<path d="M1946 3212 c-2 -4 -1 -14 3 -21 6 -10 10 -9 14 3 6 16 -8 32 -17 18z"/>
<path d="M2070 3210 c-12 -7 -12 -12 0 -35 14 -27 40 -30 48 -6 3 10 0 12 -12
8 -11 -5 -15 -3 -10 5 5 8 2 9 -9 5 -20 -7 -22 4 -5 21 14 14 9 15 -12 2z"/>
<path d="M1820 3184 c0 -8 5 -12 10 -9 6 4 8 11 5 16 -9 14 -15 11 -15 -7z"/>
<path d="M1860 3125 c0 -35 -6 -39 -47 -38 -7 1 -13 -2 -13 -6 0 -16 61 -109
88 -135 l31 -29 30 49 c17 26 31 53 30 58 0 6 -5 1 -11 -11 -15 -30 -28 -29
-28 2 0 20 5 25 25 25 14 0 25 4 25 8 0 5 -14 6 -31 4 -30 -4 -31 -6 -26 -46
7 -47 -4 -72 -27 -63 -10 4 -16 19 -17 39 -1 18 -3 25 -6 15 -4 -14 -8 -16
-19 -6 -19 16 -18 43 1 35 8 -3 15 -1 15 5 0 7 -10 9 -24 5 -17 -4 -26 -1 -30
10 -8 21 1 34 25 34 15 0 19 7 19 35 0 31 3 35 25 35 21 0 25 -5 25 -30 0 -27
3 -30 33 -29 30 2 30 2 5 6 -23 4 -28 9 -28 34 0 27 -3 29 -35 29 -33 0 -35
-2 -35 -35z"/>
<path d="M2112 3148 c-17 -17 -15 -33 3 -18 9 8 15 9 15 2 0 -6 -5 -14 -10
-17 -15 -9 -2 -25 15 -18 18 6 19 24 2 46 -10 14 -15 15 -25 5z"/>
<path d="M1992 3090 c0 -14 2 -19 5 -12 2 6 2 18 0 25 -3 6 -5 1 -5 -13z"/>
<path d="M2139 3084 c-12 -15 -11 -16 11 -9 24 7 24 6 6 -7 -12 -9 -15 -17 -9
-21 15 -10 35 17 27 37 -8 20 -18 20 -35 0z"/>
<path d="M1447 3000 c-45 -58 -76 -90 -88 -90 -15 0 -19 -7 -19 -37 0 -53 -10
-83 -26 -83 -11 0 -14 -22 -16 -97 -1 -82 -2 -90 -8 -48 l-7 50 -1 -47 c-2
-35 -6 -48 -17 -48 -12 0 -15 15 -15 72 0 39 -2 69 -5 66 -3 -3 -7 -395 -8
-872 l-2 -866 258 0 257 0 -6 -40 -7 -40 278 0 278 0 -7 40 -6 40 260 0 260 0
1 323 c1 915 -1 1390 -6 1395 -3 3 -5 -25 -5 -62 0 -50 -3 -67 -12 -64 -7 3
-16 22 -19 44 l-5 39 -6 -35 c-2 -19 -6 7 -6 58 -2 73 -5 92 -17 92 -10 0 -16
17 -21 60 -5 48 -10 60 -24 60 -11 0 -45 36 -87 90 -37 49 -70 90 -73 90 -3 0
-30 -38 -60 -85 -55 -84 -55 -85 -97 -85 l-43 0 0 -65 c0 -51 -3 -65 -15 -65
-12 0 -15 -19 -16 -102 -1 -72 -4 -92 -9 -68 l-7 35 -2 -32 c-1 -22 -6 -33
-16 -33 -12 0 -15 17 -15 97 0 53 -3 94 -6 90 -3 -3 -5 -136 -5 -296 0 -160
-1 -291 -3 -291 -3 0 -16 4 -30 10 -25 9 -26 13 -26 84 0 52 -4 78 -13 83 -8
5 -23 64 -37 142 -13 74 -25 130 -27 124 -2 -6 5 -61 17 -123 11 -63 20 -119
20 -127 0 -10 -25 -13 -110 -13 -60 0 -110 3 -110 8 -2 33 105 620 110 606 4
-11 13 -54 20 -97 7 -42 15 -75 18 -73 2 3 -6 59 -18 126 -12 67 -24 120 -25
118 -2 -2 -29 -153 -61 -337 -32 -184 -64 -339 -70 -346 -6 -6 -13 -46 -16
-89 -3 -77 -13 -95 -47 -96 -11 0 -12 37 -10 200 l4 200 -22 0 c-18 0 -23 6
-24 28 l-1 27 -8 -30 c-5 -20 -8 3 -9 71 -1 81 -4 103 -16 108 -11 4 -15 21
-15 66 l0 60 -38 0 c-38 0 -41 3 -97 85 -32 47 -61 85 -64 85 -3 0 -37 -41
-74 -90z m128 -2 c53 -84 62 -75 -82 -80 -46 -2 -83 1 -83 6 0 12 102 146 111
146 4 0 28 -33 54 -72z m1008 -5 c26 -34 47 -64 47 -67 0 -3 -45 -6 -101 -6
-116 0 -113 -5 -48 91 22 34 44 57 48 52 4 -4 29 -36 54 -70z m-920 -92 l47
-1 0 -52 0 -53 -180 0 -180 0 0 47 c0 41 3 48 23 53 23 5 172 11 217 9 14 -1
46 -2 73 -3z m927 -1 c41 0 80 -4 87 -8 6 -4 14 -27 18 -52 l7 -45 -186 0
-186 0 0 52 c0 49 2 52 28 56 15 3 56 3 92 1 36 -2 99 -4 140 -4z m-872 -126
c20 -6 22 -12 22 -85 l0 -78 -47 22 c-41 19 -66 22 -168 22 -102 0 -127 -3
-167 -22 l-48 -22 0 79 c0 74 1 79 23 83 35 7 359 7 385 1z m996 0 c13 -5 16
-22 16 -81 0 -56 -3 -73 -12 -69 -71 29 -128 38 -222 34 -79 -3 -110 -9 -143
-26 -23 -12 -45 -22 -48 -22 -3 0 -5 36 -5 79 0 54 4 81 13 84 18 8 382 8 401
1z m-1034 -151 c76 -34 75 -27 78 -295 l3 -238 -27 0 c-24 0 -26 3 -21 28 4
21 2 29 -9 29 -10 0 -14 -7 -11 -19 3 -10 2 -20 -2 -22 -11 -7 -71 32 -71 45
0 17 59 68 64 55 2 -6 5 3 5 20 1 21 -5 34 -15 38 -10 4 -14 12 -10 22 5 12 1
14 -15 9 -24 -8 -42 5 -81 59 -15 21 -28 35 -28 29 0 -5 7 -18 15 -29 17 -23
19 -54 3 -54 -20 0 1 -13 25 -15 29 -2 71 -73 55 -93 -6 -7 -18 -10 -25 -7 -8
3 -22 -2 -30 -11 -10 -10 -19 -12 -26 -5 -11 11 -1 45 11 37 11 -6 32 37 31
62 0 14 -2 14 -6 2 -3 -8 -17 -28 -30 -44 -18 -22 -22 -35 -17 -61 4 -26 1
-38 -15 -54 -24 -24 -30 -25 -82 -9 -46 13 -45 25 7 101 19 27 34 54 34 61 0
6 -12 -8 -26 -31 -27 -46 -40 -53 -47 -25 -3 10 -5 6 -6 -10 0 -16 -7 -28 -13
-28 -10 0 -10 -2 0 -8 7 -5 10 -16 6 -26 -5 -13 -9 -14 -20 -5 -18 15 -17 57
1 89 8 14 14 36 13 50 0 17 -2 19 -5 8 -3 -14 -15 -18 -54 -18 l-49 0 0 128
c0 178 4 195 50 221 56 32 106 41 205 37 63 -2 104 -9 135 -23z m959 11 c86
-24 100 -38 107 -111 6 -54 5 -63 -9 -63 -9 0 -26 -13 -38 -30 -12 -16 -26
-27 -31 -23 -6 3 -5 10 1 16 6 6 11 24 11 39 0 21 -6 29 -24 34 -14 3 -30 3
-36 -1 -15 -9 -10 -97 6 -91 6 2 21 -2 32 -10 19 -13 22 -12 31 3 6 10 11 14
11 10 0 -4 -11 -24 -25 -44 -13 -20 -22 -39 -20 -43 5 -9 -83 -6 -91 3 -4 3 4
23 16 44 l22 38 -29 -33 c-15 -18 -33 -32 -39 -32 -11 0 -31 -34 -36 -63 -3
-16 -5 -16 -25 -2 -15 11 -23 27 -24 48 l-1 32 -8 -35 c-6 -22 -5 -37 2 -41
12 -8 32 -214 23 -237 -12 -32 -20 5 -26 116 l-6 117 0 -130 0 -130 -45 -3
c-45 -3 -46 -2 -51 30 -10 58 7 166 29 183 10 8 25 15 32 15 7 0 12 13 12 30
0 23 -6 33 -24 40 -30 11 -61 54 -74 103 -14 51 -2 46 33 -13 17 -27 33 -50
37 -50 4 0 4 -8 1 -17 -4 -11 7 -5 27 14 36 33 50 34 50 3 0 -10 5 -22 10 -25
14 -8 13 -2 -6 45 -9 22 -21 40 -26 40 -6 0 -8 14 -4 34 5 24 2 39 -9 50 -19
18 -29 21 -19 5 4 -7 0 -9 -14 -5 -11 4 -23 2 -27 -3 -4 -7 0 -8 11 -4 14 5
15 3 5 -16 -7 -12 -17 -19 -24 -15 -9 5 -8 3 1 -7 6 -7 12 -17 12 -21 0 -16
-23 -7 -42 17 -11 14 -24 25 -29 25 -10 0 -6 -56 4 -67 4 -3 7 -19 7 -35 0
-16 4 -27 9 -24 13 8 48 -35 53 -66 7 -38 -18 -60 -38 -33 -8 10 -14 28 -14
39 0 12 -5 28 -11 36 -14 20 -2 -46 15 -81 9 -19 10 -45 4 -95 -9 -72 -4 -130
14 -151 11 -14 32 -18 25 -5 -3 4 10 7 28 7 18 0 31 -4 28 -9 -3 -5 0 -7 8 -4
8 3 14 10 14 16 0 6 9 17 19 25 18 13 19 23 13 121 -5 99 -5 106 13 106 10 0
22 5 26 11 3 6 14 9 23 6 14 -3 16 1 13 24 -4 24 -1 27 18 22 29 -8 48 -49 31
-66 -10 -9 -11 -8 -5 8 7 18 6 18 -9 6 -17 -13 -24 -41 -10 -41 3 0 14 7 24
16 31 28 46 11 53 -63 3 -37 9 -93 12 -124 6 -64 -3 -74 -62 -63 l-34 6 0 111
c0 61 -2 108 -5 105 -3 -2 -7 -57 -10 -121 l-5 -116 54 -6 c44 -6 59 -4 71 9
9 9 21 16 26 16 12 0 12 186 -1 229 -6 23 -6 39 1 47 5 7 9 39 8 71 -2 44 3
66 17 88 19 29 19 29 22 -230 1 -143 0 -265 -3 -272 -3 -10 -58 -13 -235 -13
l-230 0 0 304 c0 167 3 318 6 335 16 81 207 126 353 85z m-1366 -61 c-7 -2
-19 -2 -25 0 -7 3 -2 5 12 5 14 0 19 -2 13 -5z m530 0 c-7 -2 -19 -2 -25 0 -7
3 -2 5 12 5 14 0 19 -2 13 -5z m464 1 c-3 -3 -12 -4 -19 -1 -8 3 -5 6 6 6 11
1 17 -2 13 -5z m523 -4 c0 -5 -7 -10 -15 -10 -8 0 -15 5 -15 10 0 6 7 10 15
10 8 0 15 -4 15 -10z m-987 -17 c-7 -2 -19 -2 -25 0 -7 3 -2 5 12 5 14 0 19
-2 13 -5z m460 0 c-7 -2 -19 -2 -25 0 -7 3 -2 5 12 5 14 0 19 -2 13 -5z m-983
-323 c0 -269 -2 -310 -15 -310 -13 0 -15 41 -15 310 0 269 2 310 15 310 13 0
15 -41 15 -310z m518 -2 c-2 -238 -6 -312 -15 -316 -10 -3 -13 64 -13 312 0
276 2 316 15 316 13 0 15 -39 13 -312z m472 -3 c0 -273 -2 -315 -15 -315 -13
0 -15 42 -15 315 0 273 2 315 15 315 13 0 15 -42 15 -315z m520 5 c0 -269 -2
-310 -15 -310 -13 0 -15 41 -15 310 0 269 2 310 15 310 13 0 15 -41 15 -310z
m-375 230 c-3 -38 -11 -46 -30 -30 -16 13 -10 34 7 24 7 -5 8 -2 3 6 -6 9 7
28 21 30 1 0 1 -14 -1 -30z m251 16 c7 -19 -13 -56 -31 -56 -10 0 -15 11 -15
35 0 29 4 35 20 35 11 0 23 -6 26 -14z m54 -46 c-6 -11 -13 -20 -16 -20 -2 0
0 9 6 20 6 11 13 20 16 20 2 0 0 -9 -6 -20z m-290 -45 c0 -7 -6 -18 -13 -24
-20 -16 -63 25 -47 44 9 11 17 11 36 3 13 -6 24 -17 24 -23z m270 -65 c0 -43
-3 -52 -22 -59 -19 -7 -24 -5 -26 12 -2 12 1 23 7 25 6 2 11 10 11 18 0 17 18
54 25 54 3 0 5 -23 5 -50z m-577 34 l37 -7 0 -71 0 -71 -140 0 -140 0 0 78 0
77 103 0 c56 0 119 -3 140 -6z m415 -63 c3 -8 -1 -12 -9 -9 -7 2 -15 10 -17
17 -3 8 1 12 9 9 7 -2 15 -10 17 -17z m93 -4 c-1 -12 -15 -9 -19 4 -3 6 1 10
8 8 6 -3 11 -8 11 -12z m-231 -7 c0 -5 -4 -10 -10 -10 -5 0 -10 5 -10 10 0 6
5 10 10 10 6 0 10 -4 10 -10z m-1025 -60 c-22 -43 -20 -96 5 -103 11 -3 20
-10 20 -17 0 -7 -18 -10 -52 -8 l-53 3 -3 78 -3 77 51 0 51 0 -16 -30z m295
21 c0 -17 -18 -21 -24 -6 -3 9 0 15 9 15 8 0 15 -4 15 -9z m1021 -37 c10 -45
10 -211 0 -194 -5 8 -12 51 -15 95 -4 44 -9 93 -12 109 -8 39 19 30 27 -10z
m-506 -22 l40 -7 3 -92 3 -91 -53 21 c-76 30 -231 30 -308 -1 -30 -12 -56 -22
-57 -22 -2 0 -3 43 -3 94 l0 95 48 4 c86 6 286 6 327 -1z m-555 -84 c0 -16
-16 -7 -31 18 l-16 26 -18 -39 c-11 -21 -25 -67 -31 -103 -10 -53 -12 -58 -13
-27 -1 21 -5 36 -10 33 -4 -3 -7 -26 -5 -51 l3 -46 -107 3 -107 3 -3 64 -3 64
107 -7 c60 -4 114 -12 121 -18 10 -8 13 -3 13 23 0 26 -3 30 -12 21 -8 -8 -49
-12 -120 -12 -91 0 -108 2 -108 16 0 13 17 15 125 12 87 -2 125 0 125 8 0 6
10 23 21 38 l21 27 24 -22 c13 -12 24 -26 24 -31z m-24 -28 c-3 -8 -7 -26 -11
-40 -5 -22 -4 -21 10 5 31 60 42 75 48 68 12 -12 7 -83 -8 -121 -14 -32 -14
-35 -1 -22 8 8 19 38 23 65 6 34 13 50 23 50 12 0 16 -19 20 -83 l5 -82 -65 0
-65 0 3 45 c4 41 2 45 -18 45 -20 0 -22 4 -17 33 3 17 10 46 17 62 11 29 12
29 26 10 8 -11 13 -27 10 -35z m154 -5 c0 -8 -9 -15 -20 -15 -11 0 -20 7 -20
15 0 8 9 15 20 15 11 0 20 -7 20 -15z m0 -90 c0 -50 -3 -65 -14 -65 -19 0 -28
29 -24 84 2 36 7 46 21 46 14 0 17 -10 17 -65z m421 17 l47 -20 0 -298 c0
-258 -3 -301 -17 -327 -9 -16 -21 -29 -26 -29 -19 2 -17 35 4 63 26 34 26 38
3 32 -25 -6 -44 20 -40 54 2 22 10 30 36 38 26 7 32 14 32 37 0 15 -4 28 -9
28 -5 0 -15 13 -23 29 -13 27 -16 29 -38 18 -29 -15 -40 -40 -13 -30 10 3 21
10 24 15 3 5 11 -3 19 -17 7 -14 17 -25 22 -25 4 0 8 -9 8 -21 0 -30 -42 -22
-52 11 -5 18 -6 14 -2 -12 5 -41 -1 -48 -22 -20 -7 9 -14 12 -14 5 0 -6 5 -15
10 -18 6 -3 10 -21 10 -40 0 -24 7 -39 24 -53 28 -21 18 -43 -19 -41 -11 0
-14 3 -7 6 17 7 15 32 -4 40 -11 4 -13 14 -9 37 l5 31 -13 -30 c-13 -27 -12
-31 4 -39 27 -13 23 -26 -7 -26 -14 0 -34 -5 -44 -10 -16 -9 -19 -8 -13 7 5
15 3 16 -8 6 -18 -17 -39 -16 -39 2 0 9 6 12 18 9 14 -5 14 -4 -2 7 -15 9 -20
9 -27 -4 -13 -22 -60 -7 -78 25 -13 23 -13 28 7 53 12 15 22 36 22 45 0 10 6
23 14 29 11 10 19 8 34 -5 22 -19 19 -37 -11 -71 -11 -13 -15 -23 -9 -23 6 0
18 10 26 21 8 12 21 19 28 16 11 -4 13 2 10 23 -4 31 21 48 44 29 22 -18 16 6
-5 26 -11 9 -21 33 -23 53 -3 37 -36 69 -45 44 -3 -6 -9 -10 -14 -7 -5 4 -6
-1 -2 -10 4 -12 8 -13 13 -5 10 17 29 4 27 -18 -1 -18 -37 -29 -37 -11 0 5 -4
9 -10 9 -5 0 -10 -6 -10 -13 0 -13 11 -17 53 -18 24 0 22 -35 -3 -42 -13 -3
-25 2 -33 14 -13 18 -14 18 -34 -4 -23 -26 -63 -107 -63 -128 0 -8 6 -21 13
-28 10 -12 8 -12 -8 -6 -11 5 -32 9 -46 9 -17 1 -25 6 -22 14 3 6 1 12 -5 12
-6 0 -13 -6 -16 -12 -3 -7 -4 113 -3 267 l2 280 65 23 c85 29 229 27 301 -6z
m-601 -26 c0 -8 -7 -17 -16 -20 -23 -9 -24 -8 -24 14 0 13 7 20 20 20 11 0 20
-6 20 -14z m-6 -41 c-7 -16 -24 -21 -24 -6 0 8 7 13 27 20 1 1 0 -6 -3 -14z
m-294 -30 c0 -8 -9 -15 -20 -15 -11 0 -20 7 -20 15 0 8 9 15 20 15 11 0 20 -7
20 -15z m470 -5 c0 -6 -82 -10 -225 -10 -143 0 -225 4 -225 10 0 6 82 10 225
10 143 0 225 -4 225 -10z m60 0 c0 -5 -11 -10 -25 -10 -14 0 -25 5 -25 10 0 6
11 10 25 10 14 0 25 -4 25 -10z m460 0 c0 -5 -9 -10 -20 -10 -11 0 -20 5 -20
10 0 6 9 10 20 10 11 0 20 -4 20 -10z m470 0 c0 -6 -83 -10 -230 -10 -147 0
-230 4 -230 10 0 6 83 10 230 10 147 0 230 -4 230 -10z m50 0 c0 -5 -9 -10
-20 -10 -11 0 -20 5 -20 10 0 6 9 10 20 10 11 0 20 -4 20 -10z m-1510 -110 c0
-73 -3 -90 -15 -90 -12 0 -15 17 -15 90 0 73 3 90 15 90 12 0 15 -17 15 -90z
m478 2 c2 -46 -1 -82 -5 -80 -154 78 -296 86 -415 24 l-48 -25 0 85 0 84 233
-2 232 -3 3 -83z m37 -7 c0 -62 -4 -90 -12 -92 -10 -4 -13 19 -13 92 0 73 3
96 13 93 8 -3 12 -31 12 -93z m475 0 c0 -78 -3 -95 -15 -95 -12 0 -15 17 -15
95 0 78 3 95 15 95 12 0 15 -17 15 -95z m478 8 c2 -46 1 -83 -1 -83 -3 0 -24
11 -48 24 -114 64 -260 56 -411 -22 -5 -2 -8 35 -8 82 l0 86 233 -2 232 -3 3
-82z m32 -3 c0 -53 -4 -90 -10 -90 -6 0 -10 37 -10 90 0 53 4 90 10 90 6 0 10
-37 10 -90z m-1139 -46 c30 -9 66 -25 82 -36 l27 -19 0 -270 c0 -208 -3 -269
-12 -270 -10 0 -10 -2 0 -6 7 -3 12 -23 12 -49 l0 -44 -217 0 c-120 0 -224 4
-231 9 -9 5 -12 26 -11 59 2 42 7 55 26 67 13 9 23 20 23 25 0 6 -10 0 -22
-12 l-23 -23 -3 210 c-2 116 0 234 3 263 6 46 10 54 38 69 86 45 211 56 308
27z m1000 -4 c96 -30 100 -35 106 -132 l5 -83 -21 32 c-22 35 -51 36 -51 2 0
-10 -4 -19 -10 -19 -5 0 -10 7 -10 16 0 8 -8 23 -17 32 -15 15 -16 15 -11 1 4
-9 1 -23 -5 -30 -10 -11 -9 -11 6 0 14 11 17 11 17 -2 0 -8 -6 -17 -12 -20 -8
-3 -6 -8 7 -13 26 -10 35 -23 35 -55 0 -30 -28 -48 -42 -27 -5 7 -7 25 -5 40
2 15 0 25 -5 22 -4 -3 -8 1 -8 8 0 7 -13 20 -29 29 -28 16 -29 16 -42 -10 -14
-28 -13 -53 3 -62 5 -4 15 -17 22 -30 14 -29 50 -40 39 -13 -4 12 -3 15 5 10
7 -4 13 -19 13 -34 2 -24 2 -24 6 -4 5 23 43 32 43 10 0 -10 2 -10 9 0 6 10
12 5 21 -18 7 -18 20 -38 27 -46 8 -8 13 -22 11 -32 -3 -12 -10 -6 -26 23 -29
55 -28 36 3 -27 26 -54 36 -123 12 -84 -7 11 -27 35 -45 55 -18 20 -37 49 -41
66 -5 17 -10 22 -10 12 -1 -24 15 -54 56 -102 19 -22 38 -45 44 -52 5 -7 9
-41 9 -77 0 -49 -4 -65 -16 -70 -9 -3 -114 -6 -235 -6 l-219 0 0 85 0 85 28 1
c15 0 21 3 14 6 -16 6 -6 23 14 23 9 0 12 -5 8 -12 -5 -7 -3 -8 5 -3 7 4 25
11 39 16 25 8 24 9 -6 4 -29 -4 -32 -3 -22 15 5 10 10 36 10 58 0 46 3 51 33
45 41 -8 83 -117 57 -148 -7 -8 -24 -15 -39 -15 -14 -1 -39 -7 -56 -15 -30
-14 -30 -14 -2 -9 16 4 27 2 27 -5 0 -7 22 -10 63 -9 l62 2 -58 3 c-61 4 -71
23 -11 23 l34 0 0 79 c0 44 -4 83 -10 86 -20 12 -9 25 20 25 17 0 30 5 30 11
0 6 -9 8 -20 4 -14 -4 -20 -2 -20 9 0 8 5 18 10 21 11 7 14 45 3 45 -4 0 -17
-12 -30 -27 -20 -26 -22 -26 -23 -8 0 12 -5 26 -12 33 -7 7 -12 36 -13 65 0
46 -3 52 -22 55 -33 5 -46 -30 -38 -96 8 -68 9 -195 0 -219 -3 -10 -21 -25
-40 -34 l-35 -16 1 201 c1 110 4 214 8 230 17 79 211 121 352 76z m-1364 -56
c-3 -3 -12 -4 -19 -1 -8 3 -5 6 6 6 11 1 17 -2 13 -5z m1506 -1 c-7 -2 -19 -2
-25 0 -7 3 -2 5 12 5 14 0 19 -2 13 -5z m-983 -13 c0 -5 -9 -10 -20 -10 -11 0
-20 5 -20 10 0 6 9 10 20 10 11 0 20 -4 20 -10z m463 3 c-7 -2 -19 -2 -25 0
-7 3 -2 5 12 5 14 0 19 -2 13 -5z m-986 -9 c-3 -3 -12 -4 -19 -1 -8 3 -5 6 6
6 11 1 17 -2 13 -5z m1506 -1 c-7 -2 -19 -2 -25 0 -7 3 -2 5 12 5 14 0 19 -2
13 -5z m-1513 -309 c0 -194 -3 -293 -10 -289 -6 4 -10 111 -10 289 0 249 3
296 17 296 2 0 3 -133 3 -296z m1515 1 c0 -222 -3 -289 -12 -292 -10 -4 -13
59 -13 292 0 233 3 296 13 293 9 -4 12 -71 12 -293z m-995 -45 c0 -213 -4
-330 -10 -330 -6 0 -10 117 -10 330 0 213 4 330 10 330 6 0 10 -117 10 -330z
m480 0 c0 -287 -2 -330 -15 -330 -13 0 -15 43 -15 330 0 287 2 330 15 330 13
0 15 -43 15 -330z m138 245 c1 -23 -2 -33 -9 -29 -6 3 -8 13 -5 21 4 9 1 13
-6 10 -7 -2 -12 -11 -10 -20 1 -8 -2 -18 -8 -22 -14 -9 -13 48 2 63 21 21 35
13 36 -23z m305 8 c-7 -2 -13 -9 -13 -15 0 -6 7 -7 16 -4 9 3 12 2 9 -5 -4 -5
1 -21 10 -35 11 -18 15 -42 13 -87 l-3 -62 -28 43 c-16 24 -26 49 -24 55 2 7
0 25 -4 40 -9 33 5 77 23 76 10 0 10 -2 1 -6z m-298 -87 c16 -29 17 -37 5 -51
-12 -14 -10 -15 13 -6 15 6 29 6 32 2 9 -16 -23 -32 -57 -29 -31 3 -33 5 -36
47 -6 77 13 93 43 37z m75 -26 c0 -5 -5 -10 -11 -10 -5 0 -7 5 -4 10 3 6 8 10
11 10 2 0 4 -4 4 -10z m-661 -65 c7 33 46 48 57 21 3 -9 12 -12 22 -9 14 5 13
2 -3 -14 -11 -11 -24 -18 -29 -15 -5 3 -6 0 -2 -6 4 -7 1 -12 -8 -12 -9 0 -16
-7 -16 -15 0 -8 -4 -15 -10 -15 -16 0 -30 36 -28 72 l1 33 5 -35 5 -35 6 30z
m195 -6 l38 -11 -6 -46 c-5 -47 2 -30 18 41 6 27 29 36 42 16 3 -6 12 -36 19
-67 6 -32 15 -64 19 -73 9 -21 -17 -28 -78 -22 -40 5 -44 8 -36 24 17 30 11
33 -11 5 -16 -21 -29 -26 -62 -26 -66 0 -70 6 -50 84 12 50 22 70 37 76 28 11
25 11 70 -1z m446 -42 c0 -16 -18 3 -23 25 -6 22 -5 22 8 4 8 -11 15 -24 15
-29z m-307 -42 l6 -60 -14 45 c-16 50 -20 99 -6 85 5 -6 11 -37 14 -70z m67
18 c0 -58 0 -58 -18 -35 -17 22 -17 26 -3 58 9 18 17 33 19 34 1 0 2 -26 2
-57z m-320 17 c-11 -40 -19 -50 -35 -50 -27 0 -27 22 1 51 35 37 45 37 34 -1z
m-85 -39 c-2 -35 -15 -36 -15 -2 0 18 4 30 8 27 5 -3 8 -14 7 -25z m405 -98
l0 -43 -210 0 -210 0 0 41 c0 34 3 40 18 35 20 -6 119 -15 212 -21 65 -3 180
13 180 26 0 4 -8 6 -17 5 -13 -1 -19 8 -21 29 l-3 30 25 -30 c18 -21 25 -42
26 -72z m-385 70 c-5 -15 -4 -16 6 -5 21 20 48 15 42 -8 -6 -21 -37 -27 -48
-10 -4 6 -11 8 -16 4 -6 -3 -5 3 3 15 16 26 23 27 13 4z m385 -168 l0 -35
-210 0 -210 0 0 35 0 35 210 0 210 0 0 -35z m-940 -55 c0 -5 -9 -10 -20 -10
-11 0 -20 5 -20 10 0 6 9 10 20 10 11 0 20 -4 20 -10z m938 -27 l-3 -38 -207
-3 -208 -2 0 40 0 40 211 0 210 0 -3 -37z m562 27 c0 -5 -9 -10 -20 -10 -11 0
-20 5 -20 10 0 6 9 10 20 10 11 0 20 -4 20 -10z m-1147 -7 c-62 -2 -165 -2
-230 0 -65 1 -14 3 112 3 127 0 180 -2 118 -3z m1087 -3 c0 -6 -80 -10 -220
-10 -140 0 -220 4 -220 10 0 6 80 10 220 10 140 0 220 -4 220 -10z m-930 -75
c0 -8 -9 -15 -20 -15 -11 0 -20 7 -20 15 0 8 9 15 20 15 11 0 20 -7 20 -15z
m480 0 c0 -9 -9 -15 -25 -15 -16 0 -25 6 -25 15 0 9 9 15 25 15 16 0 25 -6 25
-15z m-60 -5 c0 -6 -75 -10 -206 -10 -134 0 -203 3 -199 10 4 6 83 10 206 10
126 0 199 -4 199 -10z"/>
<path d="M1494 2579 l-19 -21 31 18 c30 17 33 17 57 1 14 -9 28 -27 30 -39 4
-21 4 -21 6 -2 1 27 -34 64 -63 64 -13 0 -31 -9 -42 -21z"/>
<path d="M1410 2535 c-7 -9 -11 -17 -9 -20 3 -2 10 5 17 15 14 24 10 26 -8 5z"/>
<path d="M1460 2546 c0 -2 7 -9 15 -16 13 -11 14 -10 9 4 -5 14 -24 23 -24 12z"/>
<path d="M1550 2525 c7 -9 15 -13 17 -11 7 7 -7 26 -19 26 -6 0 -6 -6 2 -15z"/>
<path d="M1442 2508 c2 -7 -2 -12 -8 -11 -6 1 -10 -8 -9 -20 1 -12 -4 -32 -11
-44 -16 -26 -14 -125 2 -141 15 -14 28 26 14 42 -17 22 -22 82 -7 94 20 17 47
4 47 -21 0 -33 24 -127 32 -127 4 0 10 5 13 10 3 6 2 10 -4 10 -5 0 -12 14
-16 31 -5 22 -2 36 11 50 18 20 6 27 -14 7 -14 -14 -16 4 -3 37 5 11 4 30 0
43 -6 15 -5 21 1 17 6 -3 10 -2 10 3 0 5 -8 12 -17 16 -10 3 -24 9 -31 12 -7
3 -11 0 -10 -8z m18 -38 c0 -11 -4 -20 -10 -20 -5 0 -10 9 -10 20 0 11 5 20
10 20 6 0 10 -9 10 -20z"/>
<path d="M1515 2490 c-18 -20 -18 -22 -1 -57 l17 -36 15 28 c8 15 14 35 14 44
1 9 7 2 14 -15 8 -18 20 -35 26 -39 7 -4 11 -4 8 1 -23 50 -35 71 -48 81 -20
17 -24 16 -45 -7z m33 -15 c0 -13 -4 -22 -9 -19 -5 3 -9 0 -9 -7 0 -10 -3 -10
-12 -1 -10 10 -10 15 2 22 8 5 11 10 7 10 -11 0 2 20 12 20 5 0 9 -11 9 -25z"/>
<path d="M1660 2345 c-11 -13 -15 -13 -21 -3 -6 9 -9 4 -9 -15 l0 -28 24 28
c24 27 26 27 53 13 15 -8 30 -26 34 -40 7 -24 7 -24 8 -2 2 46 -62 80 -89 47z"/>
<path d="M1680 2296 c0 -2 7 -7 16 -10 8 -3 12 -2 9 4 -6 10 -25 14 -25 6z"/>
<path d="M1412 2250 c0 -14 2 -19 5 -12 2 6 2 18 0 25 -3 6 -5 1 -5 -13z"/>
<path d="M1707 2256 c-4 -10 -4 -23 0 -29 3 -5 10 -24 14 -41 7 -29 8 -29 6 9
0 22 3 47 8 54 5 9 4 12 -3 7 -5 -3 -12 -1 -14 6 -3 7 -7 5 -11 -6z"/>
<path d="M2380 2543 c-18 -6 -40 -33 -40 -47 0 -6 7 0 16 12 18 27 61 29 80 5
13 -17 14 -17 8 0 -5 15 -35 39 -46 36 -2 0 -10 -3 -18 -6z"/>
<path d="M2607 2522 c-10 -10 -17 -23 -17 -28 0 -4 7 2 16 14 19 27 48 28 74
2 11 -11 20 -16 20 -12 0 16 -36 42 -57 42 -11 0 -27 -8 -36 -18z"/>
<path d="M2646 2354 c-10 -14 -16 -28 -13 -30 2 -3 12 7 21 22 10 14 16 28 13
30 -2 3 -12 -7 -21 -22z"/>
<path d="M1980 1720 c-11 -11 -20 -24 -20 -30 0 -5 11 2 25 15 13 14 31 25 40
25 9 0 27 -11 40 -25 14 -13 25 -20 25 -15 0 19 -40 50 -65 50 -14 0 -34 -9
-45 -20z"/>
<path d="M2111 1554 c0 -11 3 -14 6 -6 3 7 2 16 -1 19 -3 4 -6 -2 -5 -13z"/>
<path d="M2100 1510 c0 -11 4 -20 9 -20 5 0 7 9 4 20 -3 11 -7 20 -9 20 -2 0
-4 -9 -4 -20z"/>
<path d="M2030 1462 c0 -6 -14 -13 -31 -17 -50 -11 -19 -23 41 -15 30 4 47 8
38 9 -9 0 -24 8 -32 17 -9 8 -16 11 -16 6z"/>
<path d="M1486 1598 c-24 -33 -19 -45 5 -14 27 35 64 34 83 -1 8 -16 15 -23
16 -18 1 25 -32 55 -60 55 -18 0 -34 -8 -44 -22z"/>
<path d="M1505 1559 c-4 -5 -1 -17 4 -26 10 -17 10 -17 11 0 0 19 8 21 30 7
10 -6 11 -10 3 -10 -7 0 -13 -7 -13 -15 0 -20 -15 -19 -36 3 -17 16 -18 16
-11 -1 4 -10 7 -28 8 -40 0 -12 3 -16 6 -9 2 6 14 12 25 12 14 0 18 -5 14 -16
-13 -34 -18 -65 -10 -62 10 3 14 -5 14 -31 0 -11 -8 -22 -17 -24 -16 -4 -16
-5 -1 -6 9 0 19 -9 21 -18 4 -17 5 -17 6 0 1 22 46 23 55 1 9 -22 8 -23 -13
-17 -16 4 -22 -3 -32 -36 -7 -23 -17 -45 -24 -51 -20 -17 -58 13 -73 59 -10
29 -17 39 -23 30 -5 -9 -11 -6 -20 14 -7 15 -16 27 -21 27 -4 0 -8 5 -8 11 0
6 7 9 15 5 19 -7 19 5 -1 30 -8 10 -13 13 -9 7 3 -7 -1 -23 -9 -35 l-16 -22 0
27 c0 28 -27 39 -34 15 -7 -20 -15 -94 -9 -80 10 25 19 11 15 -23 -3 -25 -8
-33 -16 -26 -8 6 -11 1 -12 -17 -1 -15 1 -21 3 -14 3 6 9 12 14 12 6 0 8 -4 5
-9 -3 -4 6 -6 19 -3 18 3 31 -3 45 -19 22 -27 26 -59 8 -59 -6 0 -9 -2 -7 -4
2 -2 24 0 49 4 36 6 39 8 14 9 -27 1 -33 6 -44 42 -11 33 -11 45 -1 61 7 11 8
17 2 13 -6 -3 -11 -2 -11 3 0 5 9 12 20 15 15 4 20 0 20 -13 0 -25 48 -80 70
-80 23 0 36 17 45 57 7 37 20 49 31 32 5 -8 3 -9 -7 -4 -11 7 -12 6 -2 -6 8
-10 10 -33 6 -67 -6 -50 -7 -52 -42 -58 -56 -9 -61 -15 -9 -9 26 2 50 0 53 -5
3 -6 14 -10 23 -10 16 1 16 1 0 11 -19 10 -23 53 -12 97 5 16 13 22 28 20 27
-4 33 -43 11 -68 -11 -12 -13 -20 -6 -25 6 -3 11 1 11 9 0 20 11 20 36 1 30
-23 36 -17 9 10 -33 32 -33 70 -1 71 18 1 26 -4 29 -20 2 -11 2 6 -1 39 -6 74
-6 75 -43 75 -17 0 -32 6 -35 15 -5 13 -8 13 -21 0 -8 -8 -19 -15 -24 -15 -6
0 -3 7 5 16 9 8 13 20 10 26 -4 6 -2 8 4 4 5 -3 13 0 16 6 3 9 9 7 20 -6 9
-11 16 -14 16 -8 0 15 26 16 33 2 3 -6 4 -5 3 2 -3 15 -54 30 -83 23 -18 -4
-24 2 -39 43 -37 100 -41 108 -62 109 -12 1 -24 -2 -27 -8z m96 -146 c15 -36
7 -52 -16 -33 -12 10 -15 10 -15 -3 0 -8 5 -18 10 -20 6 -3 5 -4 -2 -3 -7 2
-13 11 -13 22 -1 10 -4 25 -8 32 -5 6 -5 33 -1 58 l7 47 12 -34 c7 -19 19 -48
26 -66z m-244 -70 c-3 -10 -5 -2 -5 17 0 19 2 27 5 18 2 -10 2 -26 0 -35z
m311 -9 c6 -11 11 -13 16 -5 4 6 14 11 22 11 11 0 14 -9 12 -32 -3 -32 -5 -33
-50 -36 -29 -2 -48 1 -48 8 0 5 9 10 20 10 17 0 18 3 10 26 -12 31 -12 34 0
34 5 0 13 -7 18 -16z m-260 -27 c2 -16 -2 -27 -8 -27 -7 0 -9 7 -6 16 3 8 2
12 -4 9 -15 -10 -12 -35 5 -35 8 0 15 -7 15 -16 0 -10 -7 -14 -22 -12 -27 4
-36 44 -18 78 15 28 34 21 38 -13z m230 2 c-3 -8 -7 -3 -11 10 -4 17 -3 21 5
13 5 -5 8 -16 6 -23z"/>
<path d="M1455 1438 c-16 -33 -16 -33 3 -11 11 12 23 19 26 15 4 -3 4 1 0 11
-9 23 -11 22 -29 -15z"/>
<path d="M1475 1412 c-6 -4 -10 -13 -10 -19 0 -7 -4 -13 -9 -12 -11 1 -26 -21
-26 -38 0 -7 7 -10 17 -6 11 4 24 -3 41 -23 16 -20 22 -23 17 -9 -5 11 -8 30
-8 43 1 19 -2 21 -13 11 -8 -7 -18 -8 -22 -4 -4 4 -1 10 6 12 16 6 34 40 24
47 -4 2 -12 2 -17 -2z"/>
<path d="M1338 1133 c12 -2 32 -2 45 0 12 2 2 4 -23 4 -25 0 -35 -2 -22 -4z"/>
<path d="M1683 1133 c9 -2 23 -2 30 0 6 3 -1 5 -18 5 -16 0 -22 -2 -12 -5z"/>
<path d="M2617 1622 c-10 -10 -17 -23 -17 -28 0 -4 7 2 16 14 8 12 26 22 39
22 13 0 31 -10 39 -22 9 -12 16 -18 16 -12 0 17 -35 44 -57 44 -11 0 -27 -8
-36 -18z"/>
<path d="M2347 1602 c-10 -10 -17 -23 -17 -28 0 -4 7 2 16 14 19 27 68 30 83
5 6 -10 11 -13 11 -7 1 35 -66 46 -93 16z"/>
<path d="M2657 1589 c7 -7 15 -10 18 -7 3 3 -2 9 -12 12 -14 6 -15 5 -6 -5z"/>
<path d="M2502 1518 c5 -15 28 -18 29 -3 0 6 -7 12 -17 13 -10 3 -15 -1 -12
-10z"/>
<path d="M2512 1358 c-7 -7 -12 -43 -12 -90 0 -64 3 -78 16 -78 8 0 12 -4 9
-10 -3 -5 -1 -10 4 -10 6 0 11 7 11 15 0 8 -7 15 -15 15 -12 0 -15 14 -15 68
0 39 5 73 12 80 6 6 9 14 7 17 -3 2 -11 -1 -17 -7z"/>
<path d="M2411 1304 c0 -11 3 -14 6 -6 3 7 2 16 -1 19 -3 4 -6 -2 -5 -13z"/>
<path d="M2410 1270 c0 -5 5 -10 11 -10 5 0 7 5 4 10 -3 6 -8 10 -11 10 -2 0
-4 -4 -4 -10z"/>
<path d="M2305 1130 c-16 -7 -17 -9 -3 -9 9 -1 20 4 23 9 7 11 7 11 -20 0z"/>
<path d="M2700 1442 c1 -11 26 -42 34 -42 16 0 0 43 -16 46 -10 1 -18 -1 -18
-4z"/>
<path d="M1975 1360 c3 -5 18 -10 33 -9 24 0 25 1 7 9 -28 12 -47 12 -40 0z"/>
<path d="M2175 3039 c-4 -6 -5 -13 -2 -16 7 -7 27 6 27 18 0 12 -17 12 -25 -2z"/>
<path d="M2241 2912 c-1 -60 3 -91 9 -87 12 7 12 119 0 155 -5 17 -8 -6 -9
-68z"/>
<path d="M1776 2880 c-4 -63 -6 -135 -4 -160 3 -28 6 -9 8 50 3 84 4 89 10 45
l7 -50 0 55 c1 30 -2 82 -6 115 -7 58 -7 56 -15 -55z"/>
<path d="M2766 2910 c-4 -47 -6 -112 -4 -145 4 -59 4 -59 8 20 l3 80 7 -60 7
-60 0 55 c0 30 -2 87 -6 125 l-7 70 -8 -85z"/>
<path d="M1251 2878 c1 -88 3 -96 9 -53 12 73 12 155 0 155 -6 0 -9 -40 -9
-102z"/>
<path d="M1273 2775 c0 -38 2 -53 4 -32 2 20 2 52 0 70 -2 17 -4 1 -4 -38z"/>
<path d="M2263 2745 c0 -38 2 -53 4 -32 2 20 2 52 0 70 -2 17 -4 1 -4 -38z"/>
<path d="M2062 2780 c0 -14 2 -19 5 -12 2 6 2 18 0 25 -3 6 -5 1 -5 -13z"/>
<path d="M2072 2725 c0 -16 2 -22 5 -12 2 9 2 23 0 30 -3 6 -5 -1 -5 -18z"/>
<path d="M1803 2680 c0 -36 2 -50 4 -32 2 17 2 47 0 65 -2 17 -4 3 -4 -33z"/>
<path d="M920 2699 c0 -5 5 -7 10 -4 6 3 10 8 10 11 0 2 -4 4 -10 4 -5 0 -10
-5 -10 -11z"/>
<path d="M960 2695 c0 -4 16 -27 35 -52 19 -25 35 -51 35 -57 0 -6 4 -5 9 3 7
10 4 19 -7 27 -25 18 -3 50 30 46 14 -2 28 3 30 10 4 9 -3 13 -21 13 -14 0
-45 4 -68 8 -24 4 -43 5 -43 2z m60 -37 c0 -13 -23 -5 -28 10 -2 7 2 10 12 6
9 -3 16 -11 16 -16z"/>
<path d="M2082 2670 c0 -14 2 -19 5 -12 2 6 2 18 0 25 -3 6 -5 1 -5 -13z"/>
<path d="M3014 2640 l-51 -27 19 -36 c10 -20 27 -41 38 -47 36 -19 90 12 90
52 0 23 -29 89 -39 87 -3 -1 -29 -14 -57 -29z m76 -9 c0 -5 3 -16 6 -25 7 -17
-37 -66 -60 -66 -19 0 -46 27 -46 45 0 8 17 23 38 34 41 22 62 26 62 12z"/>
<path d="M885 2551 c-15 -30 -21 -52 -15 -56 6 -3 10 3 10 14 0 31 12 32 67 2
42 -23 53 -26 57 -14 8 21 8 23 -9 23 -16 0 -95 37 -95 44 0 3 7 12 16 20 8 9
11 16 5 16 -6 0 -22 -22 -36 -49z"/>
<path d="M3092 2489 c-24 -10 -48 -17 -52 -14 -4 3 -6 -4 -3 -15 4 -13 9 -17
17 -12 6 5 32 17 59 27 26 10 47 22 47 26 0 13 -20 10 -68 -12z"/>
<path d="M836 2424 c-9 -23 -8 -24 13 -24 10 0 35 -7 54 -15 42 -17 57 -19 57
-6 0 5 -17 15 -37 21 -21 7 -48 18 -60 26 -18 11 -22 11 -27 -2z"/>
<path d="M3139 2351 c-55 -16 -55 -16 -47 -47 10 -40 33 -49 58 -24 11 11 29
20 39 20 21 0 37 17 27 27 -3 3 -12 0 -20 -6 -8 -7 -20 -10 -26 -6 -15 9 -2
25 21 25 10 0 19 7 19 15 0 17 2 18 -71 -4z m11 -35 c0 -18 -27 -39 -40 -31
-16 10 -12 33 8 38 29 8 32 7 32 -7z"/>
<path d="M800 2295 c0 -35 25 -42 67 -20 29 16 36 17 44 4 7 -11 9 -11 9 4 0
26 -29 33 -62 14 -39 -22 -51 -21 -45 3 3 11 1 20 -4 20 -5 0 -9 -11 -9 -25z"/>
<path d="M905 2250 c-3 -5 -1 -10 4 -10 6 0 11 5 11 10 0 6 -2 10 -4 10 -3 0
-8 -4 -11 -10z"/>
<path d="M3142 2214 c-16 -11 -22 -25 -22 -54 0 -29 6 -43 22 -54 31 -22 64
-20 88 4 26 26 25 60 -1 94 -23 29 -54 33 -87 10z m83 -20 c39 -39 -19 -99
-72 -75 -33 15 -29 60 7 78 33 17 45 16 65 -3z"/>
<path d="M879 2179 c-22 -18 -29 -19 -46 -8 -25 15 -53 6 -53 -18 0 -14 2 -15
9 -5 12 19 45 11 49 -11 3 -16 -1 -17 -32 -11 -27 5 -36 3 -36 -7 0 -10 16
-15 48 -17 26 -1 55 -5 65 -8 11 -4 17 0 17 10 0 10 -9 16 -25 16 -33 0 -32
12 5 33 17 10 30 25 30 33 0 17 1 17 -31 -7z"/>
<path d="M3130 1998 c0 -21 4 -38 9 -38 4 0 6 11 3 25 -4 24 -3 25 52 25 42 0
56 4 56 15 0 11 -13 14 -60 12 l-60 -2 0 -37z"/>
<path d="M770 1986 l0 -35 65 2 65 2 0 33 c0 17 -4 32 -9 32 -5 0 -7 -9 -4
-20 5 -17 0 -20 -27 -20 -27 0 -30 3 -25 20 4 11 2 20 -4 20 -6 0 -11 -9 -11
-20 0 -14 -7 -20 -21 -20 -16 0 -20 5 -16 20 3 11 1 20 -4 20 -5 0 -9 -15 -9
-34z"/>
<path d="M3140 1910 c-46 -46 -14 -120 52 -120 57 0 79 82 32 119 -33 26 -58
27 -84 1z m88 -22 c34 -34 -14 -87 -65 -71 -31 11 -42 45 -23 69 15 17 71 19
88 2z"/>
<path d="M770 1877 c0 -10 14 -17 45 -21 24 -4 47 -11 50 -16 3 -4 -15 -16
-39 -26 -31 -13 -42 -23 -39 -35 4 -14 13 -11 59 19 30 19 54 38 54 42 0 3
-24 12 -52 19 -29 8 -59 18 -65 24 -9 7 -13 5 -13 -6z"/>
<path d="M3101 1724 c-29 -37 -27 -72 5 -84 33 -13 34 -13 34 5 0 8 -9 15 -20
15 -31 0 -37 30 -11 52 30 24 56 23 82 -3 22 -22 19 -55 -9 -76 -14 -12 -14
-13 0 -13 10 0 21 14 28 36 11 32 10 39 -7 63 -29 38 -74 40 -102 5z"/>
<path d="M858 1707 c-30 -6 -48 -16 -48 -24 0 -9 7 -12 18 -9 9 3 38 10 65 17
26 6 47 15 47 20 0 11 -19 10 -82 -4z"/>
<path d="M893 1598 c-29 -11 -50 -24 -48 -28 3 -5 22 0 43 10 20 10 38 17 40
15 2 -1 -9 -28 -23 -60 -14 -32 -25 -59 -25 -60 0 -1 27 7 60 19 33 12 60 26
60 32 0 8 -14 5 -37 -7 -45 -23 -51 -14 -24 40 35 67 33 69 -46 39z"/>
<path d="M3046 1584 c-3 -7 9 -15 29 -18 40 -8 55 -25 29 -32 -11 -3 -37 -13
-59 -23 l-39 -17 56 -31 c44 -24 58 -27 62 -17 3 9 -1 14 -12 14 -9 1 -28 7
-42 15 l-25 14 35 14 c19 8 48 19 64 24 29 9 29 9 -32 39 -43 21 -63 27 -66
18z"/>
<path d="M2980 1441 c0 -5 7 -14 15 -21 23 -19 1 -52 -32 -48 -15 2 -28 -3
-30 -9 -3 -8 5 -13 20 -13 13 0 46 -3 72 -7 l48 -6 -43 56 c-43 57 -50 64 -50
48z m56 -79 c-9 -9 -37 8 -31 18 5 8 11 7 21 -1 8 -6 12 -14 10 -17z"/>
<path d="M959 1407 c-20 -12 -34 -27 -32 -34 2 -7 14 -2 30 13 15 14 37 27 50
30 23 6 53 -10 53 -27 0 -13 -81 -69 -91 -63 -5 3 -6 -2 -3 -10 8 -21 15 -20
54 7 47 31 56 50 42 81 -15 33 -53 34 -103 3z"/>
<path d="M3288 3258 c7 -7 12 -15 12 -19 0 -4 -46 -44 -102 -89 -68 -54 -108
-80 -120 -77 -14 4 -9 -7 19 -46 54 -77 74 -97 115 -118 44 -23 77 -24 121 -5
81 35 119 125 82 197 -19 36 -123 169 -133 169 -3 0 -1 -5 6 -12z m80 -128
c39 -77 12 -149 -72 -190 -40 -19 -47 -20 -78 -7 -38 17 -75 54 -80 81 -2 14
21 39 87 93 49 40 97 72 105 71 8 -2 25 -23 38 -48z"/>
<path d="M650 3025 c34 -63 60 -115 58 -115 -2 0 -50 9 -108 20 -172 33 -170
36 -46 -89 62 -63 106 -114 102 -120 -15 -24 3 -9 28 23 22 29 23 33 7 29 -13
-3 -38 14 -82 57 -51 49 -59 60 -39 56 64 -14 181 -29 186 -23 4 3 -15 45 -40
93 -26 47 -45 88 -43 91 3 2 41 -16 85 -40 88 -49 80 -49 122 7 14 18 14 19
-5 8 -17 -9 -39 -1 -143 54 -67 35 -127 64 -133 64 -5 0 18 -52 51 -115z"/>
<path d="M3535 2919 c9 -23 -222 -154 -242 -137 -20 16 -16 2 17 -55 18 -30
28 -42 25 -27 -6 23 2 30 105 89 71 40 118 61 131 58 19 -5 19 -4 -2 31 -27
45 -43 64 -34 41z"/>
<path d="M3480 2668 c-54 -37 -74 -72 -73 -126 2 -151 163 -223 275 -123 64
57 43 202 -36 251 -47 28 -123 27 -166 -2z m181 -46 c84 -75 -1 -202 -134
-202 -32 0 -49 6 -65 23 -60 63 -23 158 75 193 59 20 89 17 124 -14z"/>
<path d="M554 2480 c-5 -5 -75 -19 -154 -31 -80 -11 -148 -24 -153 -28 -4 -4
46 -45 110 -91 65 -45 126 -92 135 -104 l18 -21 0 22 c0 12 3 29 7 39 4 12 3
15 -5 10 -7 -4 -29 3 -48 15 -34 21 -36 24 -30 63 4 23 10 44 14 48 4 4 29 9
57 11 46 4 50 7 58 37 9 35 6 45 -9 30z m-135 -97 c0 -10 -3 -26 -7 -35 -6
-16 -11 -15 -50 10 -23 16 -39 32 -35 35 3 4 26 7 50 7 35 0 43 -3 42 -17z"/>
<path d="M3771 2294 c-1 -18 -9 -22 -62 -28 -105 -10 -217 -7 -223 7 -4 6 -4
-3 -1 -22 3 -18 5 -45 6 -60 0 -16 3 -20 6 -11 9 23 24 30 71 30 38 0 42 -2
42 -25 0 -14 -3 -25 -8 -25 -4 0 -29 -20 -55 -43 -44 -41 -47 -47 -46 -93 1
-30 3 -41 7 -29 9 27 29 52 79 99 l41 38 29 -22 c40 -29 89 -24 116 12 18 24
19 33 10 110 -6 46 -11 74 -12 62z m-1 -98 c0 -29 -42 -66 -74 -66 -32 0 -66
28 -66 54 0 33 7 36 77 36 60 0 63 -1 63 -24z"/>
<path d="M480 2121 c0 -21 -13 -25 -192 -57 -54 -9 -98 -20 -98 -24 0 -4 52
-29 116 -56 131 -55 131 -49 4 -114 -41 -21 -84 -45 -94 -53 -19 -14 -19 -15
10 -20 16 -4 80 -12 143 -18 76 -9 118 -18 129 -28 14 -15 15 -14 9 9 -4 14
-7 31 -7 38 0 7 -5 10 -11 6 -6 -3 -49 -3 -97 1 l-86 7 80 43 c132 72 131 64
15 114 -55 24 -101 45 -101 46 0 2 43 11 95 20 l95 17 0 44 c0 24 -2 44 -5 44
-3 0 -5 -9 -5 -19z"/>
<path d="M3534 1859 c-31 -15 -54 -62 -54 -108 0 -86 29 -109 170 -135 49 -9
90 -22 96 -31 9 -12 13 -6 18 32 3 25 4 49 1 51 -3 3 -5 -2 -5 -11 0 -11 -8
-17 -22 -17 -38 0 -186 28 -207 39 -38 21 -43 86 -8 119 28 26 53 27 167 7 47
-8 86 -15 88 -15 1 0 3 -8 3 -17 2 -22 16 33 18 66 1 18 -2 21 -11 13 -9 -7
-36 -6 -88 3 -89 16 -137 17 -166 4z"/>
<path d="M488 1670 c23 -10 42 -46 42 -80 0 -22 -6 -24 -140 -61 -99 -27 -106
-28 -119 -11 -12 15 -13 15 -8 0 3 -9 9 -33 13 -52 3 -20 11 -39 17 -43 5 -3
7 -1 4 4 -11 18 14 30 136 63 88 23 122 28 132 20 11 -9 10 -1 -1 42 -8 29
-19 70 -25 91 -9 33 -13 37 -42 36 -29 0 -30 -1 -9 -9z"/>
<path d="M3428 1527 c-16 -33 -16 -34 5 -30 14 2 49 -14 92 -42 l70 -45 -106
0 c-58 0 -109 -3 -112 -6 -4 -4 23 -43 59 -86 36 -44 63 -82 61 -85 -6 -5
-130 32 -159 48 -14 7 -21 2 -38 -31 -23 -46 -26 -63 -5 -36 16 21 25 19 248
-49 29 -9 47 -10 47 -4 0 6 -34 50 -75 99 -41 49 -75 91 -75 94 0 3 56 6 125
6 75 0 125 4 125 10 0 5 -54 45 -119 89 -65 44 -121 85 -123 91 -2 7 -11 -4
-20 -23z"/>
<path d="M600 1419 c0 -9 -45 -67 -100 -129 -55 -62 -100 -117 -100 -123 0 -6
19 -7 48 -4 128 17 262 20 277 7 14 -12 14 -9 -1 23 -11 24 -21 33 -28 28 -6
-5 -29 -11 -51 -13 -37 -3 -41 0 -62 37 l-22 40 39 40 39 40 -19 35 c-11 19
-19 28 -20 19z m-35 -180 c9 -17 15 -32 13 -34 -8 -7 -98 -15 -98 -9 0 7 60
74 67 74 1 0 10 -14 18 -31z"/>
<path d="M2952 803 c-19 -9 -41 -31 -50 -50 -15 -31 -15 -37 -1 -61 8 -15 28
-30 46 -36 31 -8 32 -10 26 -53 -5 -37 -2 -48 17 -68 38 -40 104 -26 149 31
45 57 8 134 -63 134 -34 0 -34 0 -29 39 4 31 1 43 -16 60 -25 25 -36 26 -79 4z
m48 -33 c24 -24 26 -68 5 -76 -27 -11 -65 6 -77 32 -11 23 -9 29 11 45 29 24
36 24 61 -1z m98 -126 c28 -19 29 -65 2 -89 -42 -38 -111 21 -96 81 5 19 13
24 39 24 18 0 43 -7 55 -16z"/>
<path d="M1020 690 c-90 -64 -131 -88 -145 -84 -11 3 -3 -6 17 -20 42 -29 50
-32 42 -13 -3 8 10 26 30 41 l35 27 40 -26 c38 -26 39 -26 29 -68 -15 -64 -15
-66 18 -87 l30 -20 -4 28 c-2 15 8 88 22 162 29 150 29 150 19 150 -5 -1 -64
-41 -133 -90z m74 -29 c-7 -45 -20 -51 -54 -23 l-22 18 38 26 c21 15 39 26 41
24 2 -2 1 -22 -3 -45z"/>
<path d="M2670 642 c-69 -34 -75 -111 -10 -133 29 -11 29 -12 15 -39 -41 -80
11 -144 96 -119 52 16 83 51 83 94 0 41 -25 71 -66 80 -23 5 -28 11 -22 23 19
44 16 79 -7 96 -30 20 -46 20 -89 -2z m58 -24 c14 -14 16 -57 4 -76 -13 -20
-71 5 -78 34 -11 43 42 74 74 42z m70 -155 c27 -30 28 -47 2 -73 -54 -54 -127
20 -90 91 14 25 56 17 88 -18z"/>
<path d="M1444 615 c17 -13 17 -18 -18 -122 -20 -59 -43 -119 -50 -132 -14
-24 -13 -25 43 -49 80 -33 157 -39 201 -14 39 22 80 90 80 134 0 74 -48 118
-176 163 -54 19 -91 28 -80 20z m169 -95 c21 -24 27 -40 27 -76 0 -56 -23
-107 -57 -130 -33 -21 -107 -14 -134 13 -19 18 -18 21 16 123 19 58 37 111 40
118 7 19 73 -11 108 -48z"/>
<path d="M2355 546 c-38 -16 -55 -53 -55 -115 0 -102 49 -181 112 -181 42 0
68 17 84 55 29 70 5 185 -47 229 -34 29 -50 31 -94 12z m59 -31 c43 -46 69
-206 39 -236 -22 -22 -60 -2 -83 45 -29 62 -39 176 -16 199 23 23 33 22 60 -8z"/>
<path d="M2045 483 c-47 -32 -48 -34 -20 -31 l30 3 3 -90 c3 -108 -2 -133 -31
-145 -16 -6 -1 -9 53 -9 53 0 69 3 53 9 -31 13 -35 38 -32 170 2 65 2 120 -1
123 -3 3 -27 -11 -55 -30z"/>
<path d="M1180 430 c0 -16 5 -21 23 -18 12 2 22 10 22 18 0 8 -10 16 -22 18
-18 3 -23 -2 -23 -18z"/>
<path d="M1713 284 c-8 -22 18 -37 36 -20 7 8 10 19 7 25 -10 16 -36 13 -43
-5z"/>
</g>
</svg>
